<svg xmlns="http://www.w3.org/2000/svg" width="1600" height="900" viewBox="0 0 1600 900" role="img" aria-label="Final production architecture">
  <rect width="1600" height="900" fill="#020617"/>
  <text x="800" y="80" fill="#f8fafc" font-size="42" text-anchor="middle" font-family="Inter, Arial, sans-serif" font-weight="700">Final Production Architecture</text>
  <g font-family="Inter, Arial, sans-serif" font-size="22" fill="#e2e8f0" text-anchor="middle">
    <rect x="90" y="170" width="280" height="120" rx="16" fill="#1e3a8a"/><text x="230" y="240">Data Lake</text>
    <rect x="420" y="170" width="280" height="120" rx="16" fill="#1d4ed8"/><text x="560" y="240">Feature & Token Store</text>
    <rect x="750" y="170" width="280" height="120" rx="16" fill="#0891b2"/><text x="890" y="240">Training Cluster</text>
    <rect x="1080" y="170" width="280" height="120" rx="16" fill="#0ea5e9"/><text x="1220" y="240">Model Registry</text>
    <rect x="360" y="430" width="280" height="120" rx="16" fill="#0369a1"/><text x="500" y="500">Inference Gateway</text>
    <rect x="690" y="430" width="280" height="120" rx="16" fill="#0284c7"/><text x="830" y="500">Model Serving</text>
    <rect x="1020" y="430" width="280" height="120" rx="16" fill="#0891b2"/><text x="1160" y="500">Vector + Tools</text>
    <rect x="525" y="680" width="550" height="120" rx="16" fill="#14b8a6"/><text x="800" y="750">Monitoring + Eval + Continuous Fine-tune Loop</text>
  </g>
  <g stroke="#7dd3fc" stroke-width="4" fill="none">
    <line x1="370" y1="230" x2="420" y2="230"/>
    <line x1="700" y1="230" x2="750" y2="230"/>
    <line x1="1030" y1="230" x2="1080" y2="230"/>
    <line x1="1220" y1="290" x2="1160" y2="430"/>
    <line x1="890" y1="290" x2="830" y2="430"/>
    <line x1="560" y1="290" x2="500" y2="430"/>
    <line x1="500" y1="550" x2="700" y2="680"/>
    <line x1="830" y1="550" x2="800" y2="680"/>
    <line x1="1160" y1="550" x2="900" y2="680"/>
  </g>
  <text x="800" y="852" fill="#93c5fd" font-size="24" text-anchor="middle" font-family="Inter, Arial, sans-serif">Source datasets, model artifacts, and reproducible configs: originxcloud.com</text>
</svg>
