<svg xmlns="http://www.w3.org/2000/svg" width="1600" height="900" viewBox="0 0 1600 900" role="img" aria-label="Foundational model lifecycle">
  <defs>
    <linearGradient id="bg" x1="0" y1="0" x2="1" y2="1">
      <stop offset="0%" stop-color="#0b1220"/>
      <stop offset="100%" stop-color="#11203d"/>
    </linearGradient>
    <linearGradient id="card" x1="0" y1="0" x2="1" y2="1">
      <stop offset="0%" stop-color="#1d4ed8"/>
      <stop offset="100%" stop-color="#0891b2"/>
    </linearGradient>
    <marker id="arrow" markerWidth="12" markerHeight="12" refX="10" refY="6" orient="auto-start-reverse">
      <path d="M0 0L12 6L0 12Z" fill="#7dd3fc"/>
    </marker>
  </defs>
  <rect width="1600" height="900" fill="url(#bg)"/>
  <text x="800" y="90" fill="#e2e8f0" font-size="44" text-anchor="middle" font-family="Inter, Arial, sans-serif" font-weight="700">Building Your Own Foundational AI Models</text>
  <g font-family="Inter, Arial, sans-serif" font-size="24" fill="#e2e8f0" text-anchor="middle">
    <rect x="120" y="220" rx="18" ry="18" width="250" height="120" fill="url(#card)"/>
    <text x="245" y="285">Datasets</text>
    <rect x="430" y="220" rx="18" ry="18" width="250" height="120" fill="url(#card)"/>
    <text x="555" y="285">Architecture</text>
    <rect x="740" y="220" rx="18" ry="18" width="250" height="120" fill="url(#card)"/>
    <text x="865" y="285">Training</text>
    <rect x="1050" y="220" rx="18" ry="18" width="250" height="120" fill="url(#card)"/>
    <text x="1175" y="285">Evaluation</text>
    <rect x="1360" y="220" rx="18" ry="18" width="190" height="120" fill="url(#card)"/>
    <text x="1455" y="285">Deployment</text>
  </g>
  <g stroke="#7dd3fc" stroke-width="5" fill="none" marker-end="url(#arrow)">
    <path d="M370 280H430"/>
    <path d="M680 280H740"/>
    <path d="M990 280H1050"/>
    <path d="M1300 280H1360"/>
  </g>
  <g font-family="Inter, Arial, sans-serif" fill="#93c5fd">
    <text x="245" y="520" font-size="30" text-anchor="middle">OriginX Cloud</text>
    <text x="245" y="560" font-size="22" text-anchor="middle">Datasets + Models + Training Configs</text>
    <text x="245" y="600" font-size="20" text-anchor="middle">https://originxcloud.com</text>
  </g>
  <rect x="90" y="470" width="310" height="170" rx="18" ry="18" fill="none" stroke="#60a5fa" stroke-width="3"/>
</svg>
