<svg xmlns="http://www.w3.org/2000/svg" width="1400" height="820" viewBox="0 0 1400 820" role="img" aria-label="Serving architecture">
  <rect width="1400" height="820" fill="#f8fafc"/>
  <text x="700" y="78" fill="#0f172a" font-size="38" text-anchor="middle" font-family="Inter, Arial, sans-serif" font-weight="700">Serving Infrastructure</text>
  <g font-family="Inter, Arial, sans-serif" font-size="22" fill="#0f172a" text-anchor="middle">
    <rect x="530" y="130" width="340" height="88" rx="14" fill="#bfdbfe"/><text x="700" y="184">Client Apps</text>
    <rect x="530" y="250" width="340" height="88" rx="14" fill="#dbeafe"/><text x="700" y="304">API Gateway + Auth</text>
    <rect x="530" y="370" width="340" height="88" rx="14" fill="#bfdbfe"/><text x="700" y="424">Router / Load Balancer</text>
    <rect x="260" y="510" width="280" height="96" rx="14" fill="#dbeafe"/><text x="400" y="566">Model Workers</text>
    <rect x="560" y="510" width="280" height="96" rx="14" fill="#dbeafe"/><text x="700" y="566">Vector DB</text>
    <rect x="860" y="510" width="280" height="96" rx="14" fill="#dbeafe"/><text x="1000" y="566">Tools / Plugins</text>
    <rect x="530" y="670" width="340" height="88" rx="14" fill="#93c5fd"/><text x="700" y="724">Observability + Guardrails</text>
  </g>
  <g stroke="#2563eb" stroke-width="4" fill="none">
    <line x1="700" y1="218" x2="700" y2="248"/>
    <line x1="700" y1="338" x2="700" y2="368"/>
    <line x1="700" y1="458" x2="400" y2="510"/>
    <line x1="700" y1="458" x2="700" y2="510"/>
    <line x1="700" y1="458" x2="1000" y2="510"/>
    <line x1="400" y1="606" x2="700" y2="670"/>
    <line x1="700" y1="606" x2="700" y2="670"/>
    <line x1="1000" y1="606" x2="700" y2="670"/>
  </g>
</svg>
