<svg xmlns="http://www.w3.org/2000/svg" viewBox="0 0 1200 720" role="img" aria-label="12 AI Architectures hero image">
  <defs>
    <linearGradient id="bg" x1="0" y1="0" x2="1" y2="1">
      <stop offset="0%" stop-color="#050816"/>
      <stop offset="45%" stop-color="#312e81"/>
      <stop offset="100%" stop-color="#0f766e"/>
    </linearGradient>
    <radialGradient id="glowA" cx="26%" cy="24%" r="44%">
      <stop offset="0%" stop-color="#c4b5fd" stop-opacity=".6"/>
      <stop offset="100%" stop-color="#c4b5fd" stop-opacity="0"/>
    </radialGradient>
    <radialGradient id="glowB" cx="82%" cy="78%" r="36%">
      <stop offset="0%" stop-color="#67e8f9" stop-opacity=".55"/>
      <stop offset="100%" stop-color="#67e8f9" stop-opacity="0"/>
    </radialGradient>
  </defs>
  <rect width="1200" height="720" fill="url(#bg)"/>
  <rect width="1200" height="720" fill="url(#glowA)"/>
  <rect width="1200" height="720" fill="url(#glowB)"/>
  <g opacity=".15" stroke="#fff">
    <path d="M0 112h1200M0 224h1200M0 336h1200M0 448h1200M0 560h1200"/>
    <path d="M120 0v720M280 0v720M440 0v720M600 0v720M760 0v720M920 0v720M1080 0v720"/>
  </g>
  <g transform="translate(72 74)">
    <rect width="560" height="572" rx="34" fill="rgba(7,12,30,.34)" stroke="rgba(255,255,255,.14)"/>
    <rect x="34" y="34" width="250" height="50" rx="25" fill="rgba(255,255,255,.1)"/>
    <text x="58" y="66" fill="#e9d5ff" font-family="Inter, Arial, sans-serif" font-size="22" font-weight="700">AI • Architectures</text>
    <text x="34" y="154" fill="#99f6e4" font-family="Inter, Arial, sans-serif" font-size="18" font-weight="700" letter-spacing="5">ARTICLE</text>
    <text x="34" y="244" fill="#ffffff" font-family="Inter, Arial, sans-serif" font-size="64" font-weight="800">12 AI</text>
    <text x="34" y="318" fill="#ffffff" font-family="Inter, Arial, sans-serif" font-size="64" font-weight="800">Architectures</text>
    <text x="34" y="384" fill="rgba(255,255,255,.82)" font-family="Inter, Arial, sans-serif" font-size="25">Agentic systems, LLM flows, retrieval, orchestration</text>
    <text x="34" y="418" fill="rgba(255,255,255,.82)" font-family="Inter, Arial, sans-serif" font-size="25">patterns, and scalable AI product building blocks.</text>
  </g>
  <g transform="translate(760 118)">
    <circle cx="160" cy="144" r="96" fill="rgba(255,255,255,.06)" stroke="rgba(196,181,253,.22)"/>
    <circle cx="160" cy="144" r="28" fill="#a78bfa"/>
    <path d="M160 30v-48M160 306v-48M46 144H-2M322 144h-48M81 65 44 28M239 223l37 37M239 65l37-37M81 223 44 260" stroke="#67e8f9" stroke-width="8" stroke-linecap="round"/>
    <circle cx="64" cy="428" r="18" fill="#67e8f9"/>
    <circle cx="158" cy="362" r="14" fill="#c4b5fd"/>
    <circle cx="270" cy="432" r="20" fill="#2dd4bf"/>
    <path d="M64 428 158 362 270 432" fill="none" stroke="rgba(255,255,255,.28)" stroke-width="6" stroke-linecap="round"/>
    <path d="M18 520c110-70 214-92 332-60" fill="none" stroke="rgba(255,255,255,.22)" stroke-width="6" stroke-linecap="round"/>
  </g>
</svg>
