<svg xmlns="http://www.w3.org/2000/svg" viewBox="0 0 1200 720" role="img" aria-label="15 case studies dotnet hero image">
  <defs>
    <linearGradient id="bg" x1="0" y1="0" x2="1" y2="1">
      <stop offset="0%" stop-color="#031525"/>
      <stop offset="45%" stop-color="#0369a1"/>
      <stop offset="100%" stop-color="#0f172a"/>
    </linearGradient>
    <radialGradient id="glow" cx="78%" cy="20%" r="36%">
      <stop offset="0%" stop-color="#7dd3fc" stop-opacity=".52"/>
      <stop offset="100%" stop-color="#7dd3fc" stop-opacity="0"/>
    </radialGradient>
  </defs>
  <rect width="1200" height="720" fill="url(#bg)"/>
  <rect width="1200" height="720" fill="url(#glow)"/>
  <g opacity=".12" stroke="#fff">
    <path d="M0 96h1200M0 192h1200M0 288h1200M0 384h1200M0 480h1200M0 576h1200"/>
    <path d="M96 0v720M216 0v720M336 0v720M456 0v720M576 0v720M696 0v720M816 0v720M936 0v720M1056 0v720"/>
  </g>
  <g transform="translate(72 72)">
    <rect width="560" height="576" rx="34" fill="rgba(4,14,24,.34)" stroke="rgba(255,255,255,.14)"/>
    <rect x="36" y="36" width="284" height="50" rx="25" fill="rgba(255,255,255,.1)"/>
    <text x="60" y="68" fill="#bae6fd" font-family="Inter, Arial, sans-serif" font-size="22" font-weight="700">Case Studies • .NET</text>
    <text x="36" y="150" fill="#7dd3fc" font-family="Inter, Arial, sans-serif" font-size="18" font-weight="700" letter-spacing="5">CURATED</text>
    <text x="36" y="244" fill="#ffffff" font-family="Inter, Arial, sans-serif" font-size="64" font-weight="800">15 Case Studies</text>
    <text x="36" y="318" fill="#ffffff" font-family="Inter, Arial, sans-serif" font-size="64" font-weight="800">in .NET</text>
    <text x="36" y="392" fill="rgba(255,255,255,.82)" font-family="Inter, Arial, sans-serif" font-size="25">Architecture breakdowns, production lessons,</text>
    <text x="36" y="426" fill="rgba(255,255,255,.82)" font-family="Inter, Arial, sans-serif" font-size="25">and system design patterns from real products.</text>
  </g>
  <g transform="translate(772 118)">
    <rect x="0" y="0" width="116" height="80" rx="20" fill="rgba(255,255,255,.08)" stroke="rgba(186,230,253,.24)"/>
    <rect x="164" y="0" width="116" height="80" rx="20" fill="rgba(255,255,255,.08)" stroke="rgba(186,230,253,.24)"/>
    <rect x="82" y="120" width="116" height="80" rx="20" fill="rgba(255,255,255,.08)" stroke="rgba(186,230,253,.24)"/>
    <rect x="0" y="240" width="116" height="80" rx="20" fill="rgba(255,255,255,.08)" stroke="rgba(186,230,253,.24)"/>
    <rect x="164" y="240" width="116" height="80" rx="20" fill="rgba(255,255,255,.08)" stroke="rgba(186,230,253,.24)"/>
    <rect x="82" y="360" width="116" height="80" rx="20" fill="rgba(255,255,255,.08)" stroke="rgba(186,230,253,.24)"/>
    <path d="M116 40h48M140 80v40M140 200v40M116 280h48M140 320v40" fill="none" stroke="#38bdf8" stroke-width="8" stroke-linecap="round"/>
    <path d="M58 320c96 40 170 40 266 0" fill="none" stroke="rgba(255,255,255,.2)" stroke-width="6" stroke-linecap="round"/>
  </g>
</svg>
