<svg xmlns="http://www.w3.org/2000/svg" viewBox="0 0 1200 720" role="img" aria-label="Digital privacy dashboard hero image">
  <defs>
    <linearGradient id="bg" x1="0" y1="0" x2="1" y2="1">
      <stop offset="0%" stop-color="#02110f"/>
      <stop offset="45%" stop-color="#0f766e"/>
      <stop offset="100%" stop-color="#0f172a"/>
    </linearGradient>
    <radialGradient id="glow" cx="76%" cy="22%" r="34%">
      <stop offset="0%" stop-color="#99f6e4" stop-opacity=".58"/>
      <stop offset="100%" stop-color="#99f6e4" stop-opacity="0"/>
    </radialGradient>
  </defs>
  <rect width="1200" height="720" fill="url(#bg)"/>
  <rect width="1200" height="720" fill="url(#glow)"/>
  <g transform="translate(72 74)">
    <rect width="560" height="572" rx="34" fill="rgba(5,17,15,.34)" stroke="rgba(255,255,255,.14)"/>
    <rect x="34" y="34" width="290" height="50" rx="25" fill="rgba(255,255,255,.1)"/>
    <text x="60" y="66" fill="#ccfbf1" font-family="Inter, Arial, sans-serif" font-size="22" font-weight="700">Privacy • Dashboard</text>
    <text x="34" y="150" fill="#5eead4" font-family="Inter, Arial, sans-serif" font-size="18" font-weight="700" letter-spacing="5">SECURITY</text>
    <text x="34" y="244" fill="#ffffff" font-family="Inter, Arial, sans-serif" font-size="62" font-weight="800">Digital Privacy</text>
    <text x="34" y="318" fill="#ffffff" font-family="Inter, Arial, sans-serif" font-size="62" font-weight="800">Dashboard</text>
    <text x="34" y="392" fill="rgba(255,255,255,.82)" font-family="Inter, Arial, sans-serif" font-size="25">Tracking signals, threat surfaces, browser choices,</text>
    <text x="34" y="426" fill="rgba(255,255,255,.82)" font-family="Inter, Arial, sans-serif" font-size="25">and practical countermeasures in one visual story.</text>
  </g>
  <g transform="translate(784 120)">
    <rect x="0" y="0" width="280" height="212" rx="32" fill="rgba(255,255,255,.06)" stroke="rgba(153,246,228,.22)"/>
    <path d="M54 64h172M88 114h138M36 164h190" stroke="rgba(153,246,228,.22)" stroke-width="3" stroke-linecap="round"/>
    <path d="M140 46c36 0 64 29 64 64v24H76v-24c0-35 29-64 64-64Z" fill="none" stroke="#2dd4bf" stroke-width="12"/>
    <rect x="70" y="126" width="140" height="98" rx="24" fill="rgba(255,255,255,.09)" stroke="#2dd4bf" stroke-width="8"/>
    <circle cx="140" cy="173" r="16" fill="#2dd4bf"/>
    <rect x="20" y="390" width="132" height="86" rx="22" fill="rgba(255,255,255,.08)" stroke="rgba(153,246,228,.22)"/>
    <rect x="176" y="390" width="132" height="86" rx="22" fill="rgba(255,255,255,.08)" stroke="rgba(153,246,228,.22)"/>
    <path d="M54 434h64M210 434h64" stroke="#99f6e4" stroke-width="8" stroke-linecap="round"/>
  </g>
</svg>
