<svg xmlns="http://www.w3.org/2000/svg" viewBox="0 0 1200 720" role="img" aria-label="Dotnet mastery 2026 hero image">
  <defs>
    <linearGradient id="bg" x1="0" y1="0" x2="1" y2="1">
      <stop offset="0%" stop-color="#140a30"/>
      <stop offset="48%" stop-color="#6d28d9"/>
      <stop offset="100%" stop-color="#1f2937"/>
    </linearGradient>
    <radialGradient id="glow" cx="84%" cy="22%" r="36%">
      <stop offset="0%" stop-color="#ddd6fe" stop-opacity=".62"/>
      <stop offset="100%" stop-color="#ddd6fe" stop-opacity="0"/>
    </radialGradient>
  </defs>
  <rect width="1200" height="720" fill="url(#bg)"/>
  <rect width="1200" height="720" fill="url(#glow)"/>
  <g opacity=".12" stroke="#fff">
    <path d="M0 100h1200M0 200h1200M0 300h1200M0 400h1200M0 500h1200M0 600h1200"/>
    <path d="M100 0v720M220 0v720M340 0v720M460 0v720M580 0v720M700 0v720M820 0v720M940 0v720M1060 0v720"/>
  </g>
  <g transform="translate(72 72)">
    <rect width="560" height="576" rx="34" fill="rgba(29,17,65,.34)" stroke="rgba(255,255,255,.14)"/>
    <rect x="36" y="36" width="250" height="50" rx="25" fill="rgba(255,255,255,.1)"/>
    <text x="60" y="68" fill="#ede9fe" font-family="Inter, Arial, sans-serif" font-size="22" font-weight="700">.NET • Mastery</text>
    <text x="36" y="150" fill="#c4b5fd" font-family="Inter, Arial, sans-serif" font-size="18" font-weight="700" letter-spacing="5">ROADMAP</text>
    <text x="36" y="244" fill="#ffffff" font-family="Inter, Arial, sans-serif" font-size="62" font-weight="800">.NET Mastery</text>
    <text x="36" y="318" fill="#ffffff" font-family="Inter, Arial, sans-serif" font-size="62" font-weight="800">2026</text>
    <text x="36" y="392" fill="rgba(255,255,255,.82)" font-family="Inter, Arial, sans-serif" font-size="25">A sharper learning path for backend engineering,</text>
    <text x="36" y="426" fill="rgba(255,255,255,.82)" font-family="Inter, Arial, sans-serif" font-size="25">architecture depth, and modern .NET production skills.</text>
  </g>
  <g transform="translate(780 124)">
    <path d="M58 430 188 110l132 320" fill="none" stroke="#c084fc" stroke-width="18" stroke-linecap="round" stroke-linejoin="round"/>
    <path d="M112 286h152" fill="none" stroke="rgba(221,214,254,.3)" stroke-width="12" stroke-linecap="round"/>
    <circle cx="58" cy="430" r="18" fill="#c084fc"/>
    <circle cx="188" cy="110" r="18" fill="#c084fc"/>
    <circle cx="320" cy="430" r="18" fill="#c084fc"/>
    <path d="M32 506c96-48 202-48 316 0" fill="none" stroke="rgba(221,214,254,.24)" stroke-width="8" stroke-linecap="round"/>
    <rect x="24" y="0" width="332" height="468" rx="36" fill="none" stroke="rgba(255,255,255,.08)"/>
  </g>
</svg>
