<svg xmlns="http://www.w3.org/2000/svg" viewBox="0 0 1200 720" role="img" aria-label="Microservices patterns dotnet hero image">
  <defs>
    <linearGradient id="bg" x1="0" y1="0" x2="1" y2="1">
      <stop offset="0%" stop-color="#062335"/>
      <stop offset="45%" stop-color="#0f766e"/>
      <stop offset="100%" stop-color="#172554"/>
    </linearGradient>
    <radialGradient id="glow" cx="84%" cy="22%" r="38%">
      <stop offset="0%" stop-color="#67e8f9" stop-opacity=".55"/>
      <stop offset="100%" stop-color="#67e8f9" stop-opacity="0"/>
    </radialGradient>
  </defs>
  <rect width="1200" height="720" fill="url(#bg)"/>
  <rect width="1200" height="720" fill="url(#glow)"/>
  <g transform="translate(72 72)">
    <rect width="560" height="576" rx="34" fill="rgba(5,23,36,.34)" stroke="rgba(255,255,255,.14)"/>
    <rect x="36" y="36" width="340" height="50" rx="25" fill="rgba(255,255,255,.1)"/>
    <text x="60" y="68" fill="#cffafe" font-family="Inter, Arial, sans-serif" font-size="22" font-weight="700">Microservices • .NET</text>
    <text x="36" y="150" fill="#67e8f9" font-family="Inter, Arial, sans-serif" font-size="18" font-weight="700" letter-spacing="5">PATTERNS</text>
    <text x="36" y="244" fill="#ffffff" font-family="Inter, Arial, sans-serif" font-size="62" font-weight="800">Microservices</text>
    <text x="36" y="318" fill="#ffffff" font-family="Inter, Arial, sans-serif" font-size="62" font-weight="800">Patterns in .NET</text>
    <text x="36" y="392" fill="rgba(255,255,255,.82)" font-family="Inter, Arial, sans-serif" font-size="25">Service boundaries, messaging, resiliency, and</text>
    <text x="36" y="426" fill="rgba(255,255,255,.82)" font-family="Inter, Arial, sans-serif" font-size="25">production-ready architecture choices for scale.</text>
  </g>
  <g transform="translate(772 118)">
    <rect x="0" y="0" width="114" height="78" rx="20" fill="rgba(255,255,255,.08)" stroke="rgba(103,232,249,.24)"/>
    <rect x="166" y="0" width="114" height="78" rx="20" fill="rgba(255,255,255,.08)" stroke="rgba(103,232,249,.24)"/>
    <rect x="82" y="120" width="114" height="78" rx="20" fill="rgba(255,255,255,.08)" stroke="rgba(103,232,249,.24)"/>
    <rect x="0" y="240" width="114" height="78" rx="20" fill="rgba(255,255,255,.08)" stroke="rgba(103,232,249,.24)"/>
    <rect x="166" y="240" width="114" height="78" rx="20" fill="rgba(255,255,255,.08)" stroke="rgba(103,232,249,.24)"/>
    <rect x="82" y="360" width="114" height="78" rx="20" fill="rgba(255,255,255,.08)" stroke="rgba(103,232,249,.24)"/>
    <path d="M114 40h52M140 78v42M140 198v42M140 318v42" fill="none" stroke="#22d3ee" stroke-width="8" stroke-linecap="round"/>
    <path d="M196 78v42M196 198v42" fill="none" stroke="rgba(255,255,255,.26)" stroke-width="6" stroke-linecap="round"/>
    <path d="M58 520c110-74 210-100 314-72" fill="none" stroke="rgba(255,255,255,.22)" stroke-width="6" stroke-linecap="round"/>
  </g>
</svg>
