<svg xmlns="http://www.w3.org/2000/svg" viewBox="0 0 1200 720" role="img" aria-label="NotebookLM Internal Architecture Deep Dive">
  <defs>
    <linearGradient id="bg" x1="0" y1="0" x2="1" y2="1">
      <stop offset="0%" stop-color="#07111f"/>
      <stop offset="50%" stop-color="#1d4ed8"/>
      <stop offset="100%" stop-color="#0f766e"/>
    </linearGradient>
    <radialGradient id="glowA" cx="18%" cy="20%" r="50%">
      <stop offset="0%" stop-color="#93c5fd" stop-opacity="0.4"/>
      <stop offset="100%" stop-color="#93c5fd" stop-opacity="0"/>
    </radialGradient>
    <radialGradient id="glowB" cx="86%" cy="18%" r="38%">
      <stop offset="0%" stop-color="#6ee7b7" stop-opacity="0.42"/>
      <stop offset="100%" stop-color="#6ee7b7" stop-opacity="0"/>
    </radialGradient>
  </defs>
  <rect width="1200" height="720" fill="url(#bg)"/>
  <rect width="1200" height="720" fill="url(#glowA)"/>
  <rect width="1200" height="720" fill="url(#glowB)"/>
  <g opacity="0.14" stroke="#dbeafe">
    <path d="M0 118h1200M0 238h1200M0 358h1200M0 478h1200M0 598h1200"/>
    <path d="M120 0v720M280 0v720M440 0v720M600 0v720M760 0v720M920 0v720M1080 0v720"/>
  </g>
  <rect x="68" y="74" width="560" height="572" rx="36" fill="rgba(2,6,23,0.34)" stroke="rgba(255,255,255,0.14)"/>
  <rect x="108" y="114" width="250" height="52" rx="24" fill="rgba(255,255,255,0.12)" stroke="rgba(255,255,255,0.16)"/>
  <text x="136" y="147" font-family="Inter, Arial, sans-serif" font-size="22" font-weight="700" fill="#dbeafe">AI • RAG • Google</text>
  <text x="108" y="226" font-family="Inter, Arial, sans-serif" font-size="18" font-weight="700" letter-spacing="4" fill="#86efac">FEATURED ARTICLE</text>
  <text x="108" y="312" font-family="Inter, Arial, sans-serif" font-size="60" font-weight="800" fill="#ffffff">NotebookLM Internal</text>
  <text x="108" y="380" font-family="Inter, Arial, sans-serif" font-size="60" font-weight="800" fill="#ffffff">Architecture</text>
  <text x="108" y="446" font-family="Inter, Arial, sans-serif" font-size="24" fill="#dbeafe" opacity="0.9">A clear walkthrough of ingestion, embedding, retrieval, prompting,</text>
  <text x="108" y="482" font-family="Inter, Arial, sans-serif" font-size="24" fill="#dbeafe" opacity="0.9">Gemini reasoning, citations, and source-grounded outputs.</text>
  <rect x="108" y="544" width="218" height="58" rx="20" fill="rgba(255,255,255,0.08)" stroke="rgba(110,231,183,0.35)"/>
  <circle cx="144" cy="573" r="10" fill="#34d399"/>
  <text x="170" y="580" font-family="Inter, Arial, sans-serif" font-size="24" font-weight="700" fill="#ffffff">NotebookLM</text>
  <g transform="translate(748 108)">
    <rect width="360" height="500" rx="34" fill="rgba(15,23,42,0.26)" stroke="rgba(255,255,255,0.14)"/>
    <rect x="42" y="40" width="118" height="84" rx="20" fill="rgba(147,197,253,0.12)" stroke="rgba(147,197,253,0.4)"/>
    <rect x="200" y="40" width="118" height="84" rx="20" fill="rgba(110,231,183,0.12)" stroke="rgba(110,231,183,0.4)"/>
    <rect x="121" y="198" width="118" height="84" rx="20" fill="rgba(251,191,36,0.12)" stroke="rgba(251,191,36,0.4)"/>
    <rect x="42" y="356" width="118" height="84" rx="20" fill="rgba(248,113,113,0.12)" stroke="rgba(248,113,113,0.4)"/>
    <rect x="200" y="356" width="118" height="84" rx="20" fill="rgba(196,181,253,0.12)" stroke="rgba(196,181,253,0.4)"/>
    <path d="M160 124v74M240 124v74M180 282v74M121 398h-19M239 398h-19" stroke="#e0f2fe" stroke-width="6" stroke-linecap="round"/>
    <path d="M101 398v-40h158v40" fill="none" stroke="#e0f2fe" stroke-width="6" stroke-linecap="round" stroke-linejoin="round"/>
    <text x="72" y="89" font-family="Inter, Arial, sans-serif" font-size="22" font-weight="700" fill="#dbeafe">Sources</text>
    <text x="219" y="89" font-family="Inter, Arial, sans-serif" font-size="22" font-weight="700" fill="#ecfccb">Embed</text>
    <text x="148" y="247" font-family="Inter, Arial, sans-serif" font-size="22" font-weight="700" fill="#fef3c7">Retrieve</text>
    <text x="70" y="405" font-family="Inter, Arial, sans-serif" font-size="22" font-weight="700" fill="#fee2e2">Prompt</text>
    <text x="226" y="405" font-family="Inter, Arial, sans-serif" font-size="22" font-weight="700" fill="#ede9fe">LLM</text>
  </g>
</svg>
