<svg xmlns="http://www.w3.org/2000/svg" viewBox="0 0 1200 720" role="img" aria-label="How RAG Works Internal Flow">
  <defs>
    <linearGradient id="bg" x1="0" y1="0" x2="1" y2="1">
      <stop offset="0%" stop-color="#09090f"/>
      <stop offset="45%" stop-color="#1e3a8a"/>
      <stop offset="100%" stop-color="#0f766e"/>
    </linearGradient>
    <radialGradient id="glowA" cx="16%" cy="18%" r="44%">
      <stop offset="0%" stop-color="#f5c842" stop-opacity="0.35"/>
      <stop offset="100%" stop-color="#f5c842" stop-opacity="0"/>
    </radialGradient>
    <radialGradient id="glowB" cx="84%" cy="28%" r="40%">
      <stop offset="0%" stop-color="#2dd4bf" stop-opacity="0.34"/>
      <stop offset="100%" stop-color="#2dd4bf" stop-opacity="0"/>
    </radialGradient>
  </defs>
  <rect width="1200" height="720" fill="url(#bg)"/>
  <rect width="1200" height="720" fill="url(#glowA)"/>
  <rect width="1200" height="720" fill="url(#glowB)"/>
  <g opacity="0.12" stroke="#e5e7eb">
    <path d="M0 120h1200M0 240h1200M0 360h1200M0 480h1200M0 600h1200"/>
    <path d="M120 0v720M280 0v720M440 0v720M600 0v720M760 0v720M920 0v720M1080 0v720"/>
  </g>
  <rect x="68" y="76" width="560" height="570" rx="36" fill="rgba(3,7,18,0.36)" stroke="rgba(255,255,255,0.14)"/>
  <rect x="108" y="116" width="260" height="54" rx="22" fill="rgba(255,255,255,0.08)" stroke="rgba(255,255,255,0.16)"/>
  <text x="136" y="150" font-family="Inter, Arial, sans-serif" font-size="22" font-weight="700" fill="#f8fafc">RAG • Retrieval • Grounding</text>
  <text x="108" y="228" font-family="Inter, Arial, sans-serif" font-size="18" font-weight="700" letter-spacing="4" fill="#fde68a">FEATURES ARTICLE</text>
  <text x="108" y="314" font-family="Inter, Arial, sans-serif" font-size="62" font-weight="800" fill="#ffffff">How RAG Works</text>
  <text x="108" y="382" font-family="Inter, Arial, sans-serif" font-size="62" font-weight="800" fill="#ffffff">Internal Flow</text>
  <text x="108" y="448" font-family="Inter, Arial, sans-serif" font-size="24" fill="#e5e7eb" opacity="0.9">A detailed article page covering query encoding, retrieval,</text>
  <text x="108" y="484" font-family="Inter, Arial, sans-serif" font-size="24" fill="#e5e7eb" opacity="0.9">context assembly, prompt construction, and grounded answers.</text>
  <rect x="108" y="544" width="212" height="58" rx="20" fill="rgba(255,255,255,0.08)" stroke="rgba(245,200,66,0.38)"/>
  <circle cx="144" cy="573" r="10" fill="#f5c842"/>
  <text x="170" y="580" font-family="Inter, Arial, sans-serif" font-size="24" font-weight="700" fill="#ffffff">6-stage pipeline</text>
  <g transform="translate(716 116)">
    <rect width="404" height="488" rx="34" fill="rgba(2,6,23,0.28)" stroke="rgba(255,255,255,0.14)"/>
    <rect x="34" y="58" width="90" height="68" rx="20" fill="rgba(245,200,66,0.12)" stroke="rgba(245,200,66,0.4)"/>
    <rect x="156" y="58" width="90" height="68" rx="20" fill="rgba(96,165,250,0.12)" stroke="rgba(96,165,250,0.4)"/>
    <rect x="278" y="58" width="90" height="68" rx="20" fill="rgba(45,212,191,0.12)" stroke="rgba(45,212,191,0.4)"/>
    <rect x="94" y="208" width="90" height="68" rx="20" fill="rgba(251,113,133,0.12)" stroke="rgba(251,113,133,0.4)"/>
    <rect x="218" y="208" width="90" height="68" rx="20" fill="rgba(167,139,250,0.12)" stroke="rgba(167,139,250,0.4)"/>
    <rect x="156" y="358" width="90" height="68" rx="20" fill="rgba(74,222,128,0.12)" stroke="rgba(74,222,128,0.4)"/>
    <path d="M124 92h32M246 92h32M169 126v82M293 126v82M139 276h94M201 276v82" stroke="#e5e7eb" stroke-width="6" stroke-linecap="round"/>
    <text x="58" y="100" font-family="Inter, Arial, sans-serif" font-size="20" font-weight="700" fill="#fef3c7">Query</text>
    <text x="170" y="100" font-family="Inter, Arial, sans-serif" font-size="20" font-weight="700" fill="#dbeafe">Embed</text>
    <text x="292" y="100" font-family="Inter, Arial, sans-serif" font-size="20" font-weight="700" fill="#ccfbf1">Search</text>
    <text x="112" y="250" font-family="Inter, Arial, sans-serif" font-size="20" font-weight="700" fill="#ffe4e6">Context</text>
    <text x="235" y="250" font-family="Inter, Arial, sans-serif" font-size="20" font-weight="700" fill="#ede9fe">Prompt</text>
    <text x="180" y="400" font-family="Inter, Arial, sans-serif" font-size="20" font-weight="700" fill="#dcfce7">Answer</text>
  </g>
</svg>
