<svg xmlns="http://www.w3.org/2000/svg" viewBox="0 0 1200 720" role="img" aria-label="SOLID principles guide hero image">
  <defs>
    <linearGradient id="bg" x1="0" y1="0" x2="1" y2="1">
      <stop offset="0%" stop-color="#14082e"/>
      <stop offset="48%" stop-color="#7c3aed"/>
      <stop offset="100%" stop-color="#0f172a"/>
    </linearGradient>
    <radialGradient id="glow" cx="82%" cy="24%" r="36%">
      <stop offset="0%" stop-color="#ddd6fe" stop-opacity=".58"/>
      <stop offset="100%" stop-color="#ddd6fe" stop-opacity="0"/>
    </radialGradient>
  </defs>
  <rect width="1200" height="720" fill="url(#bg)"/>
  <rect width="1200" height="720" fill="url(#glow)"/>
  <g transform="translate(72 72)">
    <rect width="560" height="576" rx="34" fill="rgba(31,16,66,.34)" stroke="rgba(255,255,255,.14)"/>
    <rect x="36" y="36" width="300" height="50" rx="25" fill="rgba(255,255,255,.1)"/>
    <text x="60" y="68" fill="#f5d0fe" font-family="Inter, Arial, sans-serif" font-size="22" font-weight="700">SOLID • Design Guide</text>
    <text x="36" y="150" fill="#ddd6fe" font-family="Inter, Arial, sans-serif" font-size="18" font-weight="700" letter-spacing="5">PRINCIPLES</text>
    <text x="36" y="244" fill="#ffffff" font-family="Inter, Arial, sans-serif" font-size="62" font-weight="800">SOLID Principles</text>
    <text x="36" y="318" fill="#ffffff" font-family="Inter, Arial, sans-serif" font-size="62" font-weight="800">Guide</text>
    <text x="36" y="392" fill="rgba(255,255,255,.82)" font-family="Inter, Arial, sans-serif" font-size="25">A clearer path through SRP, OCP, LSP, ISP, and DIP</text>
    <text x="36" y="426" fill="rgba(255,255,255,.82)" font-family="Inter, Arial, sans-serif" font-size="25">with practical architecture and design intuition.</text>
  </g>
  <g transform="translate(780 122)">
    <path d="M60 432 188 118l132 314" fill="none" stroke="#c084fc" stroke-width="18" stroke-linecap="round" stroke-linejoin="round"/>
    <path d="M114 294h148" fill="none" stroke="rgba(221,214,254,.3)" stroke-width="12" stroke-linecap="round"/>
    <circle cx="60" cy="432" r="18" fill="#c084fc"/>
    <circle cx="188" cy="118" r="18" fill="#c084fc"/>
    <circle cx="320" cy="432" r="18" fill="#c084fc"/>
    <rect x="12" y="16" width="356" height="466" rx="38" fill="none" stroke="rgba(255,255,255,.08)"/>
    <path d="M24 520c102-52 212-52 332 0" fill="none" stroke="rgba(221,214,254,.24)" stroke-width="8" stroke-linecap="round"/>
  </g>
</svg>
