<svg viewBox="0 0 64 64" fill="none" xmlns="http://www.w3.org/2000/svg" aria-label="Proxinex icon">
  <g stroke="currentColor" stroke-linecap="round" stroke-linejoin="round">
    <path d="M32 3.5L56.68 17.75V46.25L32 60.5L7.32 46.25V17.75L32 3.5Z" stroke-width="2.5"/>
    <path d="M32 11.5L49.75 21.75V42.25L32 52.5L14.25 42.25V21.75L32 11.5Z" stroke-width="2.1" opacity="0.9"/>

    <line x1="32" y1="18" x2="32" y2="46" stroke-width="2"/>
    <line x1="19.5" y1="25" x2="44.5" y2="39" stroke-width="2"/>
    <line x1="44.5" y1="25" x2="19.5" y2="39" stroke-width="2"/>

    <line x1="32" y1="18" x2="44.5" y2="25" stroke-width="2"/>
    <line x1="32" y1="18" x2="19.5" y2="25" stroke-width="2"/>
    <line x1="44.5" y1="25" x2="44.5" y2="39" stroke-width="2"/>
    <line x1="19.5" y1="25" x2="19.5" y2="39" stroke-width="2"/>
    <line x1="32" y1="46" x2="44.5" y2="39" stroke-width="2"/>
    <line x1="32" y1="46" x2="19.5" y2="39" stroke-width="2"/>

    <circle cx="32" cy="18" r="2.75" stroke-width="2"/>
    <circle cx="44.5" cy="25" r="2.75" stroke-width="2"/>
    <circle cx="44.5" cy="39" r="2.75" stroke-width="2"/>
    <circle cx="32" cy="46" r="2.75" stroke-width="2"/>
    <circle cx="19.5" cy="39" r="2.75" stroke-width="2"/>
    <circle cx="19.5" cy="25" r="2.75" stroke-width="2"/>
  </g>

  <g transform="translate(32 32)">
    <path d="M0 -4.9L4.2 -2.45V2.45L0 4.9L-4.2 2.45V-2.45L0 -4.9Z" fill="currentColor" fill-opacity="0.08"/>
    <path d="M0 -4.9L4.2 -2.45L0 0L-4.2 -2.45L0 -4.9Z" fill="currentColor" fill-opacity="0.45"/>
    <path d="M4.2 -2.45V2.45L0 4.9V0L4.2 -2.45Z" fill="currentColor" fill-opacity="0.32"/>
    <path d="M-4.2 -2.45V2.45L0 4.9V0L-4.2 -2.45Z" fill="currentColor" fill-opacity="0.65"/>
  </g>
</svg>
