<svg xmlns="http://www.w3.org/2000/svg" viewBox="0 0 64 64" role="img" aria-label="NotebookLM">
  <defs>
    <linearGradient id="nb-bg" x1="8" y1="8" x2="56" y2="56" gradientUnits="userSpaceOnUse">
      <stop offset="0" stop-color="#0f172a"/>
      <stop offset="0.55" stop-color="#1d4ed8"/>
      <stop offset="1" stop-color="#14b8a6"/>
    </linearGradient>
    <linearGradient id="nb-page" x1="18" y1="16" x2="46" y2="48" gradientUnits="userSpaceOnUse">
      <stop offset="0" stop-color="#ffffff"/>
      <stop offset="1" stop-color="#dbeafe"/>
    </linearGradient>
  </defs>
  <rect x="4" y="4" width="56" height="56" rx="18" fill="url(#nb-bg)"/>
  <path d="M21 16h16c6.627 0 12 5.373 12 12v20H29c-4.418 0-8-3.582-8-8V16Z" fill="url(#nb-page)"/>
  <path d="M17 18h16c6.627 0 12 5.373 12 12v16H25c-4.418 0-8-3.582-8-8V18Z" fill="none" stroke="#86efac" stroke-width="3"/>
  <path d="M25 28h14M25 34h14M25 40h9" stroke="#2563eb" stroke-width="3" stroke-linecap="round"/>
  <circle cx="43" cy="44" r="7" fill="#22c55e"/>
  <path d="m46.5 47.5 5.5 5.5" stroke="#bbf7d0" stroke-width="3" stroke-linecap="round"/>
</svg>
