<?xml version="1.0" encoding="UTF-8"?>
<svg width="80px" height="40px" viewBox="0 0 80 40" version="1.1" xmlns="http://www.w3.org/2000/svg" xmlns:xlink="http://www.w3.org/1999/xlink">
    <title>049886C1-4283-4853-B4BC-4AF14AED85F2</title>
    <g id="Transition-Page" stroke="none" stroke-width="1" fill="none" fill-rule="evenodd">
        <g id="WIP---Loading-screen" transform="translate(-1571.000000, -1505.000000)" fill="#FFFFFF">
            <g id="Group-1-Copy-3" transform="translate(200.000000, 453.000000)">
                <g id="Group-1" transform="translate(0.000000, 236.000000)">
                    <g id="Group" transform="translate(1.000000, 0.000000)">
                        <g id="Brand-System" transform="translate(1370.000000, 816.000000)">
                            <g id="g12" transform="translate(40.000000, 20.436370) scale(1, -1) translate(-40.000000, -20.436370) translate(0.000000, 0.936370)">
                                <path d="M9.8327717,25.8115808 L5.41893468,27.8241058 C3.41331371,28.7755183 2.49459834,31.1845924 3.43947102,33.2044985 C4.38441952,35.2244047 6.77646099,36.1498557 8.78208197,35.1979342 C9.58459319,34.8276011 10.2310199,34.2052887 10.6229498,33.4854935 C10.9173269,32.9713541 11.5210173,32.8079494 11.9812596,33.105234 C12.4919462,33.401755 12.6541468,34.0098139 12.3588852,34.473303 C11.7709902,35.5527413 10.8265219,36.485828 9.57274027,37.0679254 C6.5129672,38.4454119 2.95147929,37.1333382 1.53324781,34.0525741 C0.114813391,30.9720644 1.46808958,27.3842875 4.52718534,25.9558962 L8.94102236,23.9436003 C10.6965946,23.1491022 11.9282373,21.2945605 11.8921226,19.2076381 C11.8435483,16.408378 9.52970076,14.1579235 6.75010151,14.2068431 C4.42531085,14.2476943 2.48265443,15.9111644 1.96367324,18.0584092 C1.82180966,18.621061 1.27124005,18.9362132 0.763217138,18.7925596 C0.204551402,18.6494914 -0.108396385,18.094908 0.0344538484,17.5831611 C0.790168009,14.5151486 3.48033707,12.2279154 6.76529043,12.1700365 C10.6566131,12.1016458 13.8961766,15.2522769 13.9640845,19.1712665 C14.0152366,22.1233431 12.2905476,24.6992071 9.8327717,25.8115808" id="path14"></path>
                                <path d="M23.1603112,26.4705447 C19.2683061,26.4705447 16.0839384,23.2635364 16.0839384,19.3438596 C16.0839384,15.424081 19.2683061,12.2171745 23.1603112,12.2171745 C27.0522152,12.2171745 30.236583,15.424081 30.236583,19.3438596 C30.236583,23.2635364 27.0522152,26.4705447 23.1603112,26.4705447 M23.1603112,14.2533702 C20.3803076,14.2533702 18.1057592,16.5440904 18.1057592,19.3438596 C18.1057592,22.1436287 20.3803076,24.4343489 23.1603112,24.4343489 C25.9402137,24.4343489 28.2147621,22.1436287 28.2147621,19.3438596 C28.2147621,16.5440904 25.9402137,14.2533702 23.1603112,14.2533702" id="path16"></path>
                                <path d="M39.4358677,15.6279041 C38.9304124,15.9331299 38.3238662,15.7295103 38.0711386,15.2714681 C37.71732,14.6605076 37.0602282,14.2533702 36.3528436,14.2533702 C35.2408422,14.2533702 34.3310228,15.1695565 34.3310228,16.289566 L34.3310228,31.561034 C34.3310228,32.1209879 33.8758604,32.5791319 33.3201124,32.5791319 C32.763859,32.5791319 32.309202,32.1209879 32.309202,31.561034 L32.309202,16.289566 C32.309202,14.0498524 34.128588,12.2171745 36.3528436,12.2171745 C37.8692092,12.2171745 39.1328473,13.0316528 39.8402318,14.2533702 C40.0929594,14.7624191 39.8910301,15.3733797 39.4358677,15.6279041" id="path18"></path>
                                <path d="M64.2031726,23.0599168 C63.6977174,22.7544874 63.0914239,22.9582088 62.8386963,23.4162511 C62.4846249,24.0271098 61.8277859,24.4343489 61.1198959,24.4343489 C60.0081471,24.4343489 59.098075,23.5180608 59.098075,22.3981532 L59.098075,7.12668511 C59.098075,6.56673128 58.6431654,6.10858723 58.0871646,6.10858723 C57.5314166,6.10858723 57.0762542,6.56673128 57.0762542,7.12668511 L57.0762542,22.3981532 C57.0762542,24.6378667 58.895893,26.4705447 61.1198959,26.4705447 C62.6362615,26.4705447 63.8998995,25.6560664 64.6077895,24.4343489 C64.8605171,23.9253 64.6580823,23.3144413 64.2031726,23.0599168" id="path20"></path>
                                <path d="M44.3895814,34.0044689 C41.5590322,36.9060479 37.6164816,38.6877191 33.2693142,38.6877191 C28.9226522,38.6877191 24.980051,36.9060479 22.1494008,34.0044689 C21.7450366,33.5972298 21.7450366,32.9354662 22.1494008,32.5791319 C22.553765,32.1718928 23.2109578,32.1718928 23.5646754,32.5791319 C26.0413048,35.0734717 29.4784002,36.6515234 33.2693142,36.6515234 C37.0602282,36.6515234 40.4973236,35.0734717 42.9740541,32.5791319 C43.378671,32.1718928 44.03551,32.1718928 44.3895814,32.5791319 C44.7936928,32.9863711 44.7936928,33.5972298 44.3895814,34.0044689" id="path22"></path>
                                <path d="M69.1568863,4.68325021 C66.3263372,1.78167128 62.3835339,0 58.0368718,0 C53.6899571,0 49.7471538,1.78167128 46.9168574,4.68325021 C46.5122405,5.09048936 46.5122405,5.75225298 46.9168574,6.10858723 C47.3209688,6.51582638 47.9780606,6.51582638 48.3318792,6.10858723 C50.8086097,3.61424745 54.2459578,2.03619574 58.0368718,2.03619574 C61.8277859,2.03619574 65.2646285,3.61424745 67.741359,6.10858723 C68.1459759,6.51582638 68.8028149,6.51582638 69.1568863,6.10858723 C69.5609977,5.70134808 69.5609977,5.09048936 69.1568863,4.68325021" id="path24"></path>
                                <path d="M47.9277678,26.4705447 C44.03551,26.4705447 40.8513949,23.2635364 40.8513949,19.3438596 C40.8513949,15.424081 44.03551,12.2171745 47.9277678,12.2171745 C49.8990431,12.2171745 51.6681363,13.0316528 52.9317743,14.3043769 C53.3358857,14.7114124 53.3358857,15.3224748 52.9317743,15.7295103 C52.5271574,16.1369531 51.8700656,16.1369531 51.516247,15.7295103 C50.6064276,14.8134259 49.3427896,14.2533702 47.9277678,14.2533702 C45.5013301,14.2533702 43.4289638,15.9840348 42.9740541,18.3257617 L53.9932302,18.3257617 C54.5489782,18.3257617 55.0041406,18.7838039 55.0041406,19.3438596 C55.0041406,23.2635364 51.8195201,26.4705447 47.9277678,26.4705447 M47.9277678,24.4343489 C50.3537,24.4343489 52.4263191,22.7036844 52.880976,20.3619574 L42.9740541,20.3619574 C43.4289638,22.7036844 45.5013301,24.4343489 47.9277678,24.4343489" id="path26"></path>
                                <path d="M72.6950727,26.4705447 C68.8028149,26.4705447 65.6186999,23.2635364 65.6186999,19.3438596 C65.6186999,15.424081 68.8028149,12.2171745 72.6950727,12.2171745 C74.666348,12.2171745 76.4859867,13.0316528 77.7496248,14.3552818 L77.7496248,13.2352723 C77.7496248,12.6753185 78.2045344,12.2171745 78.7605352,12.2171745 C79.3162832,12.2171745 79.7714456,12.6753185 79.7714456,13.2352723 L79.7714456,19.3438596 C79.7714456,23.2635364 76.5868251,26.4705447 72.6950727,26.4705447 M72.6950727,14.2533702 C69.9150691,14.2533702 67.6405207,16.5440904 67.6405207,19.3438596 C67.6405207,22.1436287 69.9150691,24.4343489 72.6950727,24.4343489 C75.4750763,24.4343489 77.7496248,22.1436287 77.7496248,19.3438596 C77.7496248,16.5440904 75.4750763,14.2533702 72.6950727,14.2533702" id="path28"></path>
                            </g>
                        </g>
                    </g>
                </g>
            </g>
        </g>
    </g>
</svg>