<svg xmlns="http://www.w3.org/2000/svg" viewBox="0 0 512 512" role="img" aria-labelledby="openowlLightTitle">
  <title id="openowlLightTitle">OpenOwl Light Logo</title>
  <defs>
    <radialGradient id="lightBg" cx="50%" cy="48%" r="55%">
      <stop offset="0%" stop-color="#ffffff" />
      <stop offset="70%" stop-color="#dedede" />
      <stop offset="100%" stop-color="#c8c8c8" />
    </radialGradient>
  </defs>

  <circle cx="256" cy="256" r="236" fill="url(#lightBg)" />

  <path fill="#1a1a1a" d="M88 286c31-50 73-90 131-114-40 38-63 75-78 121-20 3-36 1-53-7Z"/>
  <path fill="#1a1a1a" d="M424 286c-31-50-73-90-131-114 40 38 63 75 78 121 20 3 36 1 53-7Z"/>
  <path fill="#050505" d="M75 266c43-58 92-98 161-121-36 30-67 71-89 129-25 3-48 1-72-8Z"/>
  <path fill="#050505" d="M437 266c-43-58-92-98-161-121 36 30 67 71 89 129 25 3 48 1 72-8Z"/>

  <path fill="#080808" d="M152 304c0-84 47-146 104-146s104 62 104 146c0 71-47 113-104 113s-104-42-104-113Z"/>
  <path fill="#f4f4f4" d="M127 214c41-26 85-41 129-41s88 15 129 41c-31-3-58 2-86 17-14 8-28 8-42 0-28-15-55-20-86-17Z"/>
  <path fill="#ffffff" d="M150 231c33-13 66-11 99 10 4 2 10 2 14 0 33-21 66-23 99-10-22 3-43 13-65 31-6 5-10 6-16 6s-10-1-16-6c-22-18-43-28-65-31Z"/>

  <ellipse cx="208" cy="272" rx="44" ry="40" fill="#070707"/>
  <ellipse cx="304" cy="272" rx="44" ry="40" fill="#070707"/>
  <ellipse cx="208" cy="272" rx="10" ry="9" fill="#f2f2f2"/>
  <ellipse cx="304" cy="272" rx="10" ry="9" fill="#f2f2f2"/>
  <ellipse cx="198" cy="262" rx="4" ry="4" fill="#efefef"/>
  <ellipse cx="294" cy="262" rx="4" ry="4" fill="#efefef"/>

  <path fill="#151515" d="M228 314h56l-28 44-28-44Z"/>
  <path fill="#0d0d0d" d="M256 358c16 14 28 30 35 49h-12c-5-14-12-27-23-38-11 11-18 24-23 38h-12c7-19 19-35 35-49Z"/>

  <path fill="#121212" d="M232 408h8v36h-8zM252 408h8v54h-8zM272 408h8v36h-8z"/>
  <circle cx="236" cy="450" r="6" fill="#121212"/>
  <circle cx="256" cy="470" r="8" fill="#121212"/>
  <circle cx="276" cy="450" r="6" fill="#121212"/>

  <path stroke="#0d0d0d" stroke-width="6" fill="none" d="M136 180c44-51 103-76 120-76s76 25 120 76"/>
  <circle cx="345" cy="127" r="4" fill="#1f1f1f"/>
  <circle cx="372" cy="144" r="3" fill="#1f1f1f"/>
  <circle cx="325" cy="148" r="3" fill="#1f1f1f"/>
</svg>
