<svg xmlns="http://www.w3.org/2000/svg" viewBox="0 0 512 512" role="img" aria-labelledby="openowlDarkTitle">
  <title id="openowlDarkTitle">OpenOwl Dark Logo</title>
  <defs>
    <radialGradient id="bgGlow" cx="50%" cy="48%" r="55%">
      <stop offset="0%" stop-color="#0d315f" />
      <stop offset="65%" stop-color="#081629" />
      <stop offset="100%" stop-color="#03070f" />
    </radialGradient>
    <radialGradient id="eyeBlue" cx="50%" cy="50%" r="65%">
      <stop offset="0%" stop-color="#a8f1ff" />
      <stop offset="55%" stop-color="#34d8ff" />
      <stop offset="100%" stop-color="#0c5dd9" />
    </radialGradient>
    <linearGradient id="wingBlue" x1="0%" y1="0%" x2="100%" y2="100%">
      <stop offset="0%" stop-color="#a3daff" />
      <stop offset="50%" stop-color="#3ea5ff" />
      <stop offset="100%" stop-color="#163972" />
    </linearGradient>
  </defs>

  <circle cx="256" cy="256" r="236" fill="url(#bgGlow)" />

  <path fill="#d7ecff" d="M88 286c31-50 73-90 131-114-40 38-63 75-78 121-20 3-36 1-53-7Z"/>
  <path fill="#d7ecff" d="M424 286c-31-50-73-90-131-114 40 38 63 75 78 121 20 3 36 1 53-7Z"/>
  <path fill="url(#wingBlue)" d="M75 266c43-58 92-98 161-121-36 30-67 71-89 129-25 3-48 1-72-8Z"/>
  <path fill="url(#wingBlue)" d="M437 266c-43-58-92-98-161-121 36 30 67 71 89 129 25 3 48 1 72-8Z"/>

  <path fill="#0a1628" d="M152 304c0-84 47-146 104-146s104 62 104 146c0 71-47 113-104 113s-104-42-104-113Z"/>
  <path fill="#e9f5ff" d="M127 214c41-26 85-41 129-41s88 15 129 41c-31-3-58 2-86 17-14 8-28 8-42 0-28-15-55-20-86-17Z"/>
  <path fill="#f6fbff" d="M150 231c33-13 66-11 99 10 4 2 10 2 14 0 33-21 66-23 99-10-22 3-43 13-65 31-6 5-10 6-16 6s-10-1-16-6c-22-18-43-28-65-31Z"/>

  <ellipse cx="208" cy="272" rx="44" ry="40" fill="#08131f"/>
  <ellipse cx="304" cy="272" rx="44" ry="40" fill="#08131f"/>
  <ellipse cx="208" cy="272" rx="31" ry="28" fill="url(#eyeBlue)"/>
  <ellipse cx="304" cy="272" rx="31" ry="28" fill="url(#eyeBlue)"/>
  <ellipse cx="198" cy="262" rx="8" ry="7" fill="#dff8ff"/>
  <ellipse cx="294" cy="262" rx="8" ry="7" fill="#dff8ff"/>

  <path fill="#c6e5ff" d="M228 314h56l-28 44-28-44Z"/>
  <path fill="#61ceff" d="M256 358c16 14 28 30 35 49h-12c-5-14-12-27-23-38-11 11-18 24-23 38h-12c7-19 19-35 35-49Z"/>

  <path fill="#52c6ff" d="M232 408h8v36h-8zM252 408h8v54h-8zM272 408h8v36h-8z"/>
  <circle cx="236" cy="450" r="6" fill="#52c6ff"/>
  <circle cx="256" cy="470" r="8" fill="#52c6ff"/>
  <circle cx="276" cy="450" r="6" fill="#52c6ff"/>

  <path stroke="#8fceff" stroke-width="5" fill="none" d="M136 180c44-51 103-76 120-76s76 25 120 76"/>
  <circle cx="345" cy="127" r="4" fill="#d8f2ff"/>
  <circle cx="372" cy="144" r="3" fill="#d8f2ff"/>
  <circle cx="325" cy="148" r="3" fill="#d8f2ff"/>
</svg>
